<svg width="1440" height="1341" viewBox="0 0 1440 1341" fill="none" xmlns="http://www.w3.org/2000/svg">
<g opacity="0.1" clip-path="url(#clip0_2059_2582)">
<path d="M-622.741 1234.83C-626.711 1211.8 -613.134 873.469 -487.843 593.318C-375.377 342.198 -113.919 199.042 192.028 379.465C519.839 572.834 802.624 592.237 1030.65 535.775C1255.7 479.797 1405.38 311.216 1472.61 203.724C1618.52 -28.5681 1833.97 115.064 1758.23 420.674C1722.5 562.836 1628.34 602.597 1465.2 617.375C1294.66 632.822 1042.72 600.137 693.258 666.893C356.232 731.525 -23.0494 886.674 -236.344 1084.11C-463.34 1294.41 -589.504 1435.83 -622.741 1234.83Z" fill="url(#paint0_linear_2059_2582)"/>
<g clip-path="url(#clip1_2059_2582)">
<path d="M99.8423 1169.42C98.3919 1169.42 97.2132 1170.59 97.2129 1172.02C97.2127 1173.46 98.3909 1174.63 99.8414 1174.63C101.292 1174.63 102.47 1173.46 102.471 1172.02C102.471 1170.59 101.293 1169.42 99.8423 1169.42Z" fill="#FF5722"/>
<path d="M144.825 1174.62C146.277 1174.62 147.454 1173.45 147.454 1172.01C147.454 1170.58 146.278 1169.41 144.826 1169.41C143.374 1169.41 142.197 1170.58 142.196 1172.02C142.196 1173.45 143.373 1174.62 144.825 1174.62Z" fill="#FF5722"/>
<path d="M122.334 1169.41C120.884 1169.42 119.705 1170.58 119.705 1172.02C119.704 1173.45 120.883 1174.62 122.333 1174.62C123.784 1174.62 124.962 1173.45 124.962 1172.02C124.963 1170.58 123.784 1169.41 122.334 1169.41Z" fill="#FF5722"/>
<path d="M121.965 1148.25C120.514 1148.25 119.336 1149.42 119.335 1150.85C119.335 1152.29 120.514 1153.46 121.964 1153.46C123.414 1153.46 124.593 1152.29 124.593 1150.85C124.594 1149.42 123.415 1148.25 121.965 1148.25Z" fill="#FF5722"/>
<path d="M99.4732 1148.25C98.0227 1148.25 96.844 1149.42 96.8438 1150.86C96.8435 1152.29 98.0218 1153.46 99.4722 1153.46C100.923 1153.46 102.101 1152.29 102.102 1150.86C102.102 1149.42 100.924 1148.25 99.4732 1148.25Z" fill="#FF5722"/>
<path d="M166.949 1148.24C165.498 1148.24 164.32 1149.41 164.319 1150.85C164.319 1152.28 165.497 1153.45 166.948 1153.45C168.398 1153.45 169.577 1152.28 169.577 1150.85C169.577 1149.41 168.399 1148.24 166.949 1148.24Z" fill="#FF5722"/>
<path d="M144.457 1148.25C143.006 1148.25 141.827 1149.42 141.827 1150.85C141.827 1152.29 143.005 1153.45 144.456 1153.45C145.906 1153.45 147.085 1152.29 147.085 1150.85C147.085 1149.41 145.907 1148.25 144.457 1148.25Z" fill="#FF5722"/>
<path d="M99.8345 1211.77C98.384 1211.77 97.2054 1212.94 97.2051 1214.37C97.2049 1215.81 98.3831 1216.97 99.8336 1216.97C101.284 1216.97 102.463 1215.81 102.463 1214.37C102.463 1212.94 101.285 1211.77 99.8345 1211.77Z" fill="#FF5722"/>
<path d="M121.958 1190.59C120.507 1190.59 119.328 1191.76 119.328 1193.19C119.328 1194.63 120.506 1195.8 121.957 1195.8C123.407 1195.8 124.586 1194.63 124.586 1193.19C124.586 1191.76 123.408 1190.59 121.958 1190.59Z" fill="#FF5722"/>
<path d="M99.4658 1190.59C98.0154 1190.59 96.8367 1191.76 96.8365 1193.2C96.8362 1194.63 98.0145 1195.8 99.4649 1195.8C100.915 1195.8 102.094 1194.63 102.094 1193.2C102.095 1191.76 100.916 1190.59 99.4658 1190.59Z" fill="#FF5722"/>
<path d="M189.071 1127.06C187.621 1127.06 186.442 1128.23 186.442 1129.67C186.442 1131.1 187.62 1132.27 189.07 1132.27C190.521 1132.27 191.7 1131.1 191.7 1129.67C191.7 1128.23 190.522 1127.06 189.071 1127.06Z" fill="#FF5722"/>
<path d="M144.088 1127.07C142.637 1127.07 141.459 1128.24 141.459 1129.68C141.458 1131.11 142.637 1132.28 144.087 1132.28C145.537 1132.28 146.716 1131.11 146.716 1129.68C146.717 1128.24 145.538 1127.07 144.088 1127.07Z" fill="#FF5722"/>
<path d="M166.579 1132.28C168.031 1132.28 169.208 1131.11 169.208 1129.67C169.208 1128.23 168.031 1127.07 166.58 1127.07C165.128 1127.07 163.95 1128.23 163.95 1129.67C163.95 1131.11 165.127 1132.28 166.579 1132.28Z" fill="#FF5722"/>
<path d="M121.586 1127.08C120.136 1127.08 118.957 1128.24 118.957 1129.68C118.956 1131.12 120.135 1132.28 121.585 1132.28C123.035 1132.28 124.214 1131.11 124.214 1129.68C124.215 1128.24 123.046 1127.08 121.586 1127.08Z" fill="#FF5722"/>
<path d="M99.0942 1127.08C97.6438 1127.08 96.4651 1128.25 96.4649 1129.68C96.4646 1131.12 97.6429 1132.29 99.0933 1132.29C100.544 1132.29 101.722 1131.12 101.723 1129.68C101.723 1128.25 100.545 1127.08 99.0942 1127.08Z" fill="#FF5722"/>
<path d="M188.692 1105.89C187.242 1105.89 186.063 1107.06 186.063 1108.49C186.063 1109.93 187.241 1111.1 188.691 1111.1C190.142 1111.1 191.321 1109.93 191.321 1108.49C191.321 1107.06 190.143 1105.89 188.692 1105.89Z" fill="#FF5722"/>
<path d="M166.201 1105.89C164.75 1105.89 163.572 1107.06 163.571 1108.5C163.571 1109.93 164.749 1111.1 166.2 1111.1C167.65 1111.1 168.829 1109.93 168.829 1108.5C168.829 1107.06 167.651 1105.89 166.201 1105.89Z" fill="#FF5722"/>
<path d="M143.709 1105.9C142.258 1105.9 141.079 1107.07 141.079 1108.5C141.079 1109.94 142.257 1111.11 143.708 1111.1C145.158 1111.1 146.337 1109.94 146.337 1108.5C146.337 1107.07 145.159 1105.9 143.709 1105.9Z" fill="#FF5722"/>
<path d="M211.194 1105.89C209.744 1105.89 208.565 1107.06 208.565 1108.49C208.565 1109.93 209.743 1111.09 211.193 1111.09C212.644 1111.09 213.823 1109.92 213.823 1108.49C213.823 1107.05 212.645 1105.89 211.194 1105.89Z" fill="#FF5722"/>
<path d="M98.7251 1105.91C97.2747 1105.91 96.096 1107.07 96.0957 1108.51C96.0955 1109.94 97.2738 1111.11 98.7242 1111.11C100.175 1111.11 101.353 1109.94 101.354 1108.51C101.354 1107.07 100.176 1105.91 98.7251 1105.91Z" fill="#FF5722"/>
<path d="M121.217 1105.9C119.766 1105.9 118.588 1107.07 118.587 1108.51C118.587 1109.94 119.765 1111.11 121.216 1111.11C122.666 1111.11 123.845 1109.94 123.845 1108.5C123.846 1107.07 122.667 1105.9 121.217 1105.9Z" fill="#FF5722"/>
<path d="M98.356 1084.73C96.9055 1084.73 95.7268 1085.9 95.7266 1087.34C95.7263 1088.77 96.9046 1089.94 98.3551 1089.94C99.8055 1089.94 100.984 1088.77 100.984 1087.33C100.985 1085.9 99.8064 1084.73 98.356 1084.73Z" fill="#FF5722"/>
<path d="M188.322 1089.92C189.774 1089.92 190.951 1088.76 190.952 1087.32C190.952 1085.88 189.775 1084.72 188.323 1084.72C186.871 1084.72 185.694 1085.88 185.694 1087.32C185.694 1088.76 186.87 1089.92 188.322 1089.92Z" fill="#FF5722"/>
<path d="M233.306 1089.92C234.758 1089.92 235.935 1088.75 235.936 1087.31C235.936 1085.87 234.759 1084.71 233.307 1084.71C231.855 1084.71 230.678 1085.87 230.678 1087.31C230.678 1088.75 231.854 1089.92 233.306 1089.92Z" fill="#FF5722"/>
<path d="M165.832 1084.72C164.381 1084.72 163.202 1085.89 163.202 1087.32C163.202 1088.76 164.38 1089.93 165.831 1089.93C167.281 1089.93 168.46 1088.76 168.46 1087.32C168.46 1085.89 167.282 1084.72 165.832 1084.72Z" fill="#FF5722"/>
<path d="M143.34 1084.72C141.889 1084.72 140.711 1085.89 140.71 1087.33C140.71 1088.76 141.888 1089.93 143.339 1089.93C144.789 1089.93 145.968 1088.76 145.968 1087.33C145.969 1085.89 144.79 1084.72 143.34 1084.72Z" fill="#FF5722"/>
<path d="M120.848 1084.73C119.398 1084.73 118.219 1085.9 118.219 1087.33C118.219 1088.77 119.397 1089.93 120.847 1089.93C122.298 1089.93 123.476 1088.77 123.477 1087.33C123.477 1085.9 122.299 1084.73 120.848 1084.73Z" fill="#FF5722"/>
<path d="M210.815 1084.71C209.365 1084.71 208.186 1085.88 208.186 1087.32C208.185 1088.75 209.364 1089.92 210.814 1089.92C212.264 1089.92 213.443 1088.75 213.443 1087.32C213.444 1085.88 212.265 1084.71 210.815 1084.71Z" fill="#FF5722"/>
<path d="M97.9864 1068.76C99.4383 1068.76 100.616 1067.6 100.616 1066.16C100.616 1064.72 99.4392 1063.56 97.9873 1063.56C96.5354 1063.56 95.3582 1064.72 95.3579 1066.16C95.3577 1067.6 96.5345 1068.76 97.9864 1068.76Z" fill="#FF5722"/>
<path d="M210.446 1063.55C208.996 1063.55 207.817 1064.72 207.817 1066.15C207.817 1067.59 208.995 1068.75 210.445 1068.75C211.896 1068.75 213.075 1067.59 213.075 1066.15C213.075 1064.72 211.897 1063.55 210.446 1063.55Z" fill="#FF5722"/>
<path d="M120.479 1063.56C119.029 1063.56 117.85 1064.73 117.85 1066.17C117.849 1067.6 119.028 1068.77 120.478 1068.77C121.929 1068.77 123.107 1067.6 123.107 1066.17C123.108 1064.73 121.929 1063.56 120.479 1063.56Z" fill="#FF5722"/>
<path d="M165.462 1063.56C164.012 1063.56 162.833 1064.72 162.833 1066.16C162.833 1067.59 164.011 1068.76 165.461 1068.76C166.912 1068.76 168.091 1067.59 168.091 1066.16C168.091 1064.72 166.913 1063.55 165.462 1063.56Z" fill="#FF5722"/>
<path d="M142.971 1063.56C141.52 1063.56 140.342 1064.73 140.341 1066.16C140.341 1067.6 141.519 1068.77 142.97 1068.77C144.42 1068.77 145.599 1067.6 145.599 1066.16C145.599 1064.73 144.421 1063.56 142.971 1063.56Z" fill="#FF5722"/>
<path d="M187.955 1063.55C186.504 1063.55 185.325 1064.72 185.325 1066.16C185.325 1067.59 186.503 1068.76 187.954 1068.76C189.404 1068.76 190.583 1067.59 190.583 1066.15C190.583 1064.72 189.405 1063.55 187.955 1063.55Z" fill="#FF5722"/>
<path d="M255.43 1063.54C253.979 1063.54 252.801 1064.71 252.8 1066.14C252.8 1067.58 253.978 1068.75 255.429 1068.75C256.879 1068.75 258.058 1067.58 258.058 1066.14C258.058 1064.71 256.89 1063.54 255.43 1063.54Z" fill="#FF5722"/>
<path d="M232.938 1063.54C231.488 1063.54 230.309 1064.71 230.309 1066.15C230.308 1067.58 231.487 1068.75 232.937 1068.75C234.388 1068.75 235.566 1067.58 235.566 1066.15C235.567 1064.71 234.399 1063.54 232.938 1063.54Z" fill="#FF5722"/>
<path d="M120.109 1047.59C121.559 1047.59 122.738 1046.42 122.738 1044.98C122.739 1043.55 121.56 1042.38 120.11 1042.38C118.659 1042.38 117.481 1043.55 117.481 1044.98C117.48 1046.42 118.659 1047.59 120.109 1047.59Z" fill="#FF5722"/>
<path d="M97.6173 1047.59C99.0677 1047.59 100.246 1046.42 100.247 1044.99C100.247 1043.55 99.0585 1042.39 97.6182 1042.39C96.1778 1042.39 94.9891 1043.56 94.9888 1045C94.9885 1046.43 96.1668 1047.6 97.6173 1047.6L97.6173 1047.59Z" fill="#FF5722"/>
<path d="M255.06 1047.57C256.512 1047.57 257.689 1046.41 257.69 1044.97C257.69 1043.53 256.513 1042.37 255.061 1042.37C253.609 1042.37 252.432 1043.53 252.432 1044.97C252.431 1046.41 253.608 1047.57 255.06 1047.57Z" fill="#FF5722"/>
<path d="M187.585 1047.57C189.035 1047.57 190.214 1046.41 190.214 1044.97C190.214 1043.53 189.036 1042.37 187.585 1042.37C186.135 1042.37 184.956 1043.54 184.956 1044.97C184.956 1046.41 186.134 1047.57 187.585 1047.57Z" fill="#FF5722"/>
<path d="M210.076 1047.57C211.527 1047.57 212.705 1046.4 212.706 1044.97C212.706 1043.53 211.528 1042.36 210.077 1042.36C208.627 1042.36 207.448 1043.53 207.448 1044.97C207.448 1046.4 208.626 1047.57 210.076 1047.57Z" fill="#FF5722"/>
<path d="M232.568 1047.57C234.018 1047.57 235.197 1046.4 235.197 1044.96C235.198 1043.53 234.019 1042.36 232.569 1042.36C231.118 1042.36 229.94 1043.53 229.939 1044.96C229.939 1046.4 231.118 1047.57 232.568 1047.57Z" fill="#FF5722"/>
<path d="M142.601 1047.58C144.051 1047.58 145.23 1046.41 145.23 1044.98C145.23 1043.54 144.052 1042.37 142.602 1042.37C141.151 1042.38 139.972 1043.54 139.972 1044.98C139.972 1046.41 141.15 1047.58 142.601 1047.58Z" fill="#FF5722"/>
<path d="M277.552 1047.56C279.002 1047.56 280.181 1046.39 280.181 1044.95C280.181 1043.52 279.013 1042.35 277.553 1042.35C276.092 1042.35 274.924 1043.52 274.923 1044.96C274.923 1046.39 276.101 1047.56 277.552 1047.56Z" fill="#FF5722"/>
<path d="M165.093 1047.58C166.543 1047.58 167.722 1046.41 167.722 1044.97C167.722 1043.54 166.544 1042.37 165.094 1042.37C163.643 1042.37 162.465 1043.54 162.464 1044.97C162.464 1046.41 163.642 1047.58 165.093 1047.58Z" fill="#FF5722"/>
</g>
</g>
<defs>
<linearGradient id="paint0_linear_2059_2582" x1="1649.24" y1="1051.68" x2="-563.902" y2="353.318" gradientUnits="userSpaceOnUse">
<stop stop-color="#5D50C6"/>
<stop offset="1" stop-color="#F85E9F"/>
</linearGradient>
<clipPath id="clip0_2059_2582">
<rect width="2523.35" height="949.368" fill="white" transform="matrix(0.987088 -0.160178 0.165353 0.986234 -762 404.24)"/>
</clipPath>
<clipPath id="clip1_2059_2582">
<rect width="185.136" height="174.629" fill="white" transform="matrix(1.0003 -0.00016955 -0.000175229 0.999678 94.9893 1042.39)"/>
</clipPath>
</defs>
</svg>
